<?xml version="1.0"?>
<svg xmlns="http://www.w3.org/2000/svg" xmlns:xlink="http://www.w3.org/1999/xlink" version="1.1" id="Capa_1" x="0px" y="0px" viewBox="0 0 456.078 456.078" style="enable-background:new 0 0 456.078 456.078;" xml:space="preserve" width="512px" height="512px" class="hovered-paths"><g><g>
	<g>
		<path d="M436.052,71.998h-48c-4.418,0-8,3.582-8,8v8H263.364L177.708,2.342c-3.124-3.123-8.188-3.123-11.312,0l-56,56    c-3.123,3.124-3.123,8.188,0,11.312l27.736,27.736C41.682,129.392-10.564,233.523,21.438,329.973s136.132,148.696,232.582,116.694    s148.696-136.132,116.694-232.582c-3.45-10.397-7.821-20.466-13.062-30.086h22.4v8c0,4.418,3.582,8,8,8h48c4.418,0,8-3.582,8-8    v-112C444.052,75.58,440.47,71.998,436.052,71.998z M127.364,63.998l44.688-44.688l12.688,12.688l-34.344,34.344l11.312,11.312    l34.344-34.344l44.688,44.688h-44.688c-13.527,0.007-27.011,1.509-40.208,4.48L127.364,63.998z M380.052,167.998h-184    c-57.641-0.184-104.516,46.394-104.7,104.035c-0.184,57.641,46.394,104.516,104.035,104.7    c57.641,0.184,104.516-46.394,104.7-104.035c0.115-36.012-18.344-69.539-48.835-88.7h87.824    c48.57,79.019,23.886,182.451-55.133,231.021c-79.019,48.57-182.451,23.886-231.021-55.133s-23.886-182.451,55.133-231.021    c26.468-16.269,56.929-24.877,87.997-24.867h184V167.998z M222.14,321.51c-16.316,8.65-35.86,8.65-52.176,0l19.328-26.6    c4.39,1.451,9.13,1.451,13.52,0L222.14,321.51z M204.052,249.43v-32.8c18.243,2.659,34.013,14.118,42.176,30.648l-31.232,10.152    C212.192,253.767,208.393,250.99,204.052,249.43z M177.108,257.47l-31.2-10.144c8.147-16.537,23.904-28.011,42.144-30.688v32.832    C183.711,251.03,179.911,253.807,177.108,257.47z M196.052,279.998c-4.418,0-8-3.582-8-8s3.582-8,8-8s8,3.582,8,8    S200.47,279.998,196.052,279.998z M188.052,200.47c-25.192,2.863-47.029,18.746-57.512,41.832l-15.336-4.984    c12.763-29.646,40.709-49.944,72.848-52.912V200.47z M125.492,257.494c-5.112,24.849,3.277,50.551,22.064,67.6l-9.448,13    c-24.399-21.163-35.102-54.078-27.816-85.544L125.492,257.494z M140.052,271.998c0.017-3.187,0.309-6.367,0.872-9.504l31.2,10.136    c0.1,4.636,1.548,9.142,4.168,12.968l-19.256,26.512C146.174,301.593,140.045,287.118,140.052,271.998z M160.508,334.534    c22.016,12.618,49.072,12.618,71.088,0l9.424,12.968c-27.664,16.661-62.272,16.661-89.936,0L160.508,334.534z M235.068,312.086    l-19.256-26.488c2.618-3.818,4.069-8.316,4.176-12.944l31.2-10.136c0.559,3.129,0.848,6.301,0.864,9.48    C252.052,287.109,245.924,301.575,235.068,312.086z M266.58,257.494l15.2-4.944c1.482,6.377,2.244,12.901,2.272,19.448    c-0.012,25.344-10.983,49.444-30.088,66.096l-9.448-13C263.303,308.045,271.692,282.344,266.58,257.494z M261.564,242.302    c-10.483-23.086-32.32-38.969-57.512-41.832v-16.064c32.139,2.968,60.086,23.266,72.848,52.912L261.564,242.302z M428.052,183.998    h-32v-96h32V183.998z" data-original="#000000" class="active-path" data-old_color="#2998ff" fill="#2998ff"/>
	</g>
</g><g>
	<g>
		<rect x="324.052" y="263.998" width="16" height="16" data-original="#000000" class="active-path" data-old_color="#2998ff" fill="#2998ff"/>
	</g>
</g><g>
	<g>
		<rect x="52.052" y="263.998" width="16" height="16" data-original="#000000" class="active-path" data-old_color="#2998ff" fill="#2998ff"/>
	</g>
</g><g>
	<g>
		<rect x="348.052" y="119.998" width="16" height="16" data-original="#000000" class="active-path" data-old_color="#2998ff" fill="#2998ff"/>
	</g>
</g><g>
	<g>
		<rect x="260.052" y="119.998" width="72" height="16" data-original="#000000" class="active-path" data-old_color="#2998ff" fill="#2998ff"/>
	</g>
</g><g>
	<g>
		<rect x="188.052" y="399.998" width="16" height="16" data-original="#000000" class="active-path" data-old_color="#2998ff" fill="#2998ff"/>
	</g>
</g></g> </svg>
